#N canvas 1199 347 482 436 10;
#X obj 147 61 sigmund~ pitch;
#X obj 157 198 list;
#X obj 228 223 route 0 1;
#X floatatom 158 279 10 0 0 0 - - -, f 10;
#X floatatom 266 270 12 0 0 0 - - -, f 12;
#X obj 273 303 + -1;
#X obj 296 329 * -1;
#X obj 162 332 * -1;
#X obj 138 99 int;
#X obj 203 187 >= 0.5;
#X obj 132 138 -;
#X obj 144 18 inlet~;
#X obj 147 361 outlet;
#X text 253 62 Finds the pitch of the signal;
#X text 168 132 Gets decimal points of pitch;
#X text 299 238 Rounds to nearest whole #;
#X text 207 356 Sends off the difference in half-steps to the closest
whole number to be pitch shifted.;
#X connect 0 0 8 0;
#X connect 0 0 10 0;
#X connect 1 0 2 0;
#X connect 2 0 3 0;
#X connect 2 1 4 0;
#X connect 3 0 7 0;
#X connect 4 0 5 0;
#X connect 5 0 6 0;
#X connect 6 0 12 0;
#X connect 7 0 12 0;
#X connect 8 0 10 1;
#X connect 9 0 1 0;
#X connect 10 0 1 1;
#X connect 10 0 9 0;
#X connect 11 0 0 0;
