#N canvas 1022 315 850 663 10;
#X floatatom 88 150 0 0 0 0 - - -;
#X obj 99 199 exp;
#X floatatom 99 221 6 0 0 0 - - -, f 6;
#X obj 162 412 +~;
#X obj 99 436 cos~;
#X obj 99 463 *~;
#X obj 99 487 +~;
#X floatatom 66 314 10 0 0 0 - - -, f 10;
#X obj 99 386 -~ 0.5;
#X obj 99 412 *~ 0.5;
#X obj 99 242 - 1;
#X obj 99 177 * 0.05776;
#X obj 99 264 * -1;
#X obj 99 344 phasor~;
#X obj 344 101 delwrite~ del 5000;
#X obj 162 436 vd~ del;
#X obj 345 72 inlet~;
#X obj 91 107 inlet;
#X obj 121 546 outlet~;
#X obj 100 291 / 0.1;
#X obj 162 386 *~ 100;
#X text 116 150 Amount of half-steps to modulate the note by;
#X text 149 205 The math behind this is essentially we are running
a phasor through a delay line of our signal \, which in turn creates
a modulating delay speed \, which causes a pitch shift \, the frequency
of the phasor is determined by e^(g*t) where g is the constant 0.05776
to get us a change in a half step for each change in t which represents
how many half steps to move.;
#X text 18 433 carrier osc;
#X text 220 446 modulating delay line;
#X connect 0 0 11 0;
#X connect 1 0 2 0;
#X connect 2 0 10 0;
#X connect 3 0 15 0;
#X connect 4 0 5 0;
#X connect 5 0 6 0;
#X connect 6 0 18 0;
#X connect 7 0 13 0;
#X connect 8 0 9 0;
#X connect 9 0 4 0;
#X connect 10 0 12 0;
#X connect 11 0 1 0;
#X connect 12 0 19 0;
#X connect 13 0 8 0;
#X connect 13 0 20 0;
#X connect 15 0 5 1;
#X connect 16 0 14 0;
#X connect 17 0 0 0;
#X connect 19 0 7 0;
#X connect 20 0 3 0;
